<?xml version="1.0" encoding="UTF-8" standalone="no"?>
<svg
   xmlns:dc="http://purl.org/dc/elements/1.1/"
   xmlns:cc="http://creativecommons.org/ns#"
   xmlns:rdf="http://www.w3.org/1999/02/22-rdf-syntax-ns#"
   xmlns:svg="http://www.w3.org/2000/svg"
   xmlns="http://www.w3.org/2000/svg"
   xmlns:sodipodi="http://sodipodi.sourceforge.net/DTD/sodipodi-0.dtd"
   xmlns:inkscape="http://www.inkscape.org/namespaces/inkscape"
   version="1.0"
   width="640.93713pt"
   height="474.18387pt"
   viewBox="0 0 640.93714 474.18388"
   preserveAspectRatio="xMidYMid meet"
   id="svg118"
   sodipodi:docname="AE-white-bear.svg"
   inkscape:version="0.92.5 (2060ec1f9f, 2020-04-08)">
  <defs
     id="defs122" />
  <sodipodi:namedview
     pagecolor="#ffffff"
     bordercolor="#666666"
     borderopacity="1"
     objecttolerance="10"
     gridtolerance="10"
     guidetolerance="10"
     inkscape:pageopacity="0"
     inkscape:pageshadow="2"
     inkscape:window-width="1920"
     inkscape:window-height="1055"
     id="namedview120"
     showgrid="false"
     inkscape:zoom="4.5979618"
     inkscape:cx="368.07364"
     inkscape:cy="567.18191"
     inkscape:window-x="1920"
     inkscape:window-y="0"
     inkscape:window-maximized="1"
     inkscape:current-layer="g116"
     fit-margin-top="0.2"
     fit-margin-left="0"
     fit-margin-right="0"
     fit-margin-bottom="0" />
  <metadata
     id="metadata86">
Created by potrace 1.16, written by Peter Selinger 2001-2019
<rdf:RDF>
  <cc:Work
     rdf:about="">
    <dc:format>image/svg+xml</dc:format>
    <dc:type
       rdf:resource="http://purl.org/dc/dcmitype/StillImage" />
    <dc:title></dc:title>
  </cc:Work>
</rdf:RDF>
</metadata>
  <g
     transform="matrix(0.1,0,0,-0.1,-476.95,1149.1339)"
     id="g116"
     style="fill:#000000;stroke:none">
    <path
       d="m 7155,11471 c -119,-35 -210,-90 -535,-321 -182,-130 -544,-316 -740,-380 -192,-63 -292,-60 -433,11 -146,73 -165,52 -146,-161 17,-179 16,-181 -159,-411 -35,-46 -78,-110 -95,-144 l -32,-60 v -205 -205 l -32,-68 c -18,-38 -66,-119 -107,-180 -92,-140 -106,-167 -106,-210 0,-39 34,-75 136,-140 32,-20 81,-53 107,-72 27,-19 65,-37 85,-41 87,-17 239,17 674,150 206,63 295,80 418,81 88,0 113,-4 155,-23 84,-39 142,-107 220,-261 48,-94 68,-148 150,-396 86,-262 139,-393 235,-586 86,-172 302,-568 311,-569 12,0 103,85 140,133 27,33 47,76 65,135 33,109 62,166 118,236 l 45,54 12,286 c 7,157 16,286 19,286 3,0 25,-100 49,-222 24,-123 45,-224 47,-226 1,-2 38,21 81,51 79,55 209,137 218,137 19,0 -16,-40 -170,-199 -95,-100 -188,-201 -205,-227 -43,-61 -135,-243 -195,-384 -84,-197 -126,-250 -253,-320 -27,-15 -58,-47 -87,-89 -25,-35 -43,-66 -41,-68 2,-2 50,3 107,11 57,9 192,22 299,31 433,33 446,38 611,207 97,98 115,112 195,148 172,78 259,133 409,257 91,76 140,153 301,478 150,301 173,362 181,487 11,157 -25,299 -135,548 -83,189 -126,308 -161,446 -31,122 -63,295 -57,301 2,2 20,-40 41,-94 88,-230 193,-463 283,-628 152,-278 184,-371 185,-540 1,-173 -25,-282 -113,-474 -72,-155 -83,-219 -76,-416 3,-88 9,-193 12,-233 11,-132 -29,-214 -134,-270 -66,-35 -128,-98 -173,-177 -16,-27 -29,-53 -29,-56 0,-12 118,-19 474,-29 197,-6 399,-15 449,-20 50,-6 104,-8 119,-5 l 28,7 -6,68 c -9,88 -3,109 49,172 24,29 84,114 134,189 51,74 127,173 169,219 116,126 188,293 232,540 13,77 18,89 23,65 13,-57 9,-263 -6,-348 -30,-171 -116,-380 -220,-536 l -53,-79 55,-53 c 75,-74 165,-187 210,-264 l 38,-65 h 246 c 135,0 274,3 307,6 59,7 62,8 73,42 16,49 6,152 -31,299 -39,160 -69,236 -213,543 -182,390 -237,539 -237,648 0,32 16,115 40,201 139,508 171,873 101,1144 -111,431 -866,1253 -1315,1434 -97,39 -279,86 -426,110 -90,15 -161,17 -492,15 -416,-3 -496,2 -632,44 -45,14 -171,70 -281,124 -110,55 -227,106 -260,115 -77,20 -195,18 -270,-4 z"
       id="path88"
       style="fill:#ffffff;fill-opacity:1;stroke:#0a3762;stroke-opacity:1"
       inkscape:connector-curvature="0" />
  </g>
</svg>
